<?xml version="1.0" encoding="UTF-8" standalone="no"?>
<!-- Uploaded to: SVG Repo, www.svgrepo.com, Generator: SVG Repo Mixer Tools -->
<svg fill="#000000" version="1.1" id="Capa_1" width="800" height="800" viewBox="0 0 409.801 409.801" xml:space="preserve" xmlns:xlink="http://www.w3.org/1999/xlink" xmlns="http://www.w3.org/2000/svg" xmlns:svg="http://www.w3.org/2000/svg">
    <defs id="defs111" />
    <g id="g106">
        <g id="g104">
            <path d="M 370.18139,133.33435 C 359.86992,96.742162 321.93775,73.920991 278.35311,74.324929 268.23875,50.277801 249.70886,32.120036 225.56539,25.980531 188.71776,16.612175 149.98833,38.053593 128.54426,76.001669 102.66305,72.740113 77.672807,79.703403 60.282259,97.545619 33.746979,124.77121 32.948826,169.0338 55.092937,206.57706 c -15.76684,20.78645 -22.228965,45.90751 -15.474273,69.89011 10.311468,36.59131 48.245402,59.41513 91.829176,59.01119 10.11524,24.04448 28.64336,42.20224 52.78948,48.34175 36.84763,9.36924 75.57618,-12.07218 97.02025,-50.02026 25.8812,3.26156 50.87233,-3.7035 68.26111,-21.54483 26.53528,-27.22471 27.33343,-71.48819 5.19109,-109.03144 15.76507,-20.78557 22.22808,-45.90663 15.47162,-69.88923 z M 140.36013,203.181 c -23.08015,23.68031 121.32192,112.29934 91.47028,111.67796 12.21714,8.18395 28.46698,-97.87769 41.56889,-94.77877 -22.52684,10.17093 -17.31414,9.87356 -43.65054,3.17809 -7.36125,10.07546 -7.04039,25.99001 -1.95175,37.38337 -20.0705,-14.42067 131.8337,-73.80517 124.46382,-99.95861 C 343.29376,128.85149 80.745211,198.78556 96.207109,173.24554 -3.5692254,198.83382 305.21293,301.18863 316.87187,295.15849 339.9529,271.47641 148.12066,94.320302 177.96965,94.941677 110.55076,22.286033 146.41176,274.84501 150.53953,277.18926 182.58852,285.33961 272.27548,100.43771 286.66256,126.60087 264.60889,38.414173 18.105103,473.36037 256.82646,240.23032 254.37189,264.82016 159.32666,183.72038 140.36013,203.181 Z" id="path98" style="fill:#f5e0dc;fill-opacity:1;stroke-width:0.883891" />
            <g style="fill:#dd9999;fill-opacity:1;stroke:none;stroke-width:6.52874;stroke-dasharray:none;stroke-opacity:1" id="g493" transform="matrix(0.51678935,0.20991827,-0.20991827,0.51678935,142.02291,55.997113)">
                <g id="g478" style="fill:#dd9999;fill-opacity:1;stroke:none;stroke-width:6.52874;stroke-dasharray:none;stroke-opacity:1">
                    <g id="g476" style="fill:#dd9999;fill-opacity:1;stroke:none;stroke-width:6.52874;stroke-dasharray:none;stroke-opacity:1">
                        <path d="M 391.893,123.934 C 380.227,82.535 337.312,56.716 288.002,57.173 276.559,29.967 255.595,9.424 228.28,2.478 186.592,-8.121 142.775,16.137 118.514,59.07 89.233,55.38 60.96,63.258 41.285,83.444 c -30.021,30.802 -30.924,80.879 -5.871,123.354 -17.838,23.517 -25.149,51.938 -17.507,79.071 11.666,41.398 54.583,67.22 103.892,66.763 11.444,27.203 32.406,47.746 59.724,54.692 41.688,10.6 85.504,-13.658 109.765,-56.591 29.281,3.69 57.555,-4.19 77.228,-24.375 30.021,-30.801 30.924,-80.879 5.873,-123.354 17.836,-23.516 25.148,-51.937 17.504,-79.07 z m -62.059,166.073 c -26.112,26.791 -60.693,40 -94.466,39.297 13.822,9.259 28.629,15.668 43.452,19.174 -25.486,11.507 -55.363,14.748 -85.159,7.173 -36.258,-9.218 -64.984,-32.563 -81.263,-62.162 -1.105,16.6 0.746,32.628 5.121,47.217 -22.707,-16.315 -40.453,-40.571 -48.791,-70.16 -10.145,-36.013 -4.292,-72.563 13.201,-101.458 -14.927,7.338 -27.882,16.959 -38.33,28.041 2.777,-27.82 14.91,-55.316 36.368,-77.333 26.113,-26.793 60.695,-40.001 94.465,-39.298 -13.82,-9.257 -28.628,-15.667 -43.45,-19.173 25.486,-11.506 55.363,-14.747 85.158,-7.173 36.259,9.221 64.986,32.564 81.263,62.164 1.106,-16.599 -0.746,-32.629 -5.118,-47.217 22.705,16.317 40.45,40.572 48.787,70.159 10.146,36.012 4.293,72.563 -13.199,101.458 14.928,-7.339 27.882,-16.959 38.328,-28.041 -2.777,27.82 -14.909,55.315 -36.367,77.332 z" id="path470" style="fill:#dd9999;fill-opacity:1;stroke:none;stroke-width:6.52874;stroke-dasharray:none;stroke-opacity:1" />
                    </g>
                </g>
            </g>
        </g>
    </g>
</svg>