<svg width="800" height="800" viewBox="0 0 409.801 409.801" xml:space="preserve" xmlns="http://www.w3.org/2000/svg">
    <path d="M370.181 133.334c-10.311-36.592-48.243-59.413-91.828-59.01-10.114-24.046-28.644-42.204-52.788-48.343-36.847-9.369-75.577 12.073-97.02 50.02-25.882-3.26-50.872 3.702-68.263 21.545-26.535 27.225-27.333 71.488-5.19 109.031-15.766 20.787-22.228 45.908-15.473 69.89 10.311 36.591 48.245 59.415 91.829 59.011 10.115 24.045 28.643 42.203 52.79 48.342 36.847 9.37 75.575-12.072 97.02-50.02 25.88 3.261 50.872-3.704 68.26-21.545 26.536-27.225 27.334-71.488 5.192-109.031 15.765-20.786 22.228-45.907 15.471-69.89zm-229.82 69.847c-23.081 23.68 121.321 112.3 91.47 111.678 12.217 8.184 28.466-97.878 41.568-94.779-22.527 10.171-17.314 9.874-43.65 3.178-7.361 10.076-7.04 25.99-1.952 37.384-20.07-14.421 131.834-73.806 124.464-99.959-8.967-31.832-271.516 38.103-256.054 12.563-99.776 25.588 209.006 127.943 220.665 121.912C339.952 271.476 148.12 94.32 177.97 94.942c-67.42-72.656-31.558 179.903-27.43 182.247 32.049 8.15 121.735-176.751 136.123-150.588-22.054-88.187-268.558 346.76-29.837 113.63-2.454 24.59-97.5-56.51-116.466-37.05z" style="fill:#f5e0dc;fill-opacity:1;stroke-width:.883891" />
    <path d="M391.893 123.934c-11.666-41.399-54.581-67.218-103.891-66.761-11.443-27.206-32.407-47.749-59.722-54.695-41.688-10.599-85.505 13.659-109.766 56.592-29.281-3.69-57.554 4.188-77.229 24.374-30.021 30.802-30.924 80.879-5.871 123.354-17.838 23.517-25.149 51.938-17.507 79.071 11.666 41.398 54.583 67.22 103.892 66.763 11.444 27.203 32.406 47.746 59.724 54.692 41.688 10.6 85.504-13.658 109.765-56.591 29.281 3.69 57.555-4.19 77.228-24.375 30.021-30.801 30.924-80.879 5.873-123.354 17.836-23.516 25.148-51.937 17.504-79.07zm-62.059 166.073c-26.112 26.791-60.693 40-94.466 39.297 13.822 9.259 28.629 15.668 43.452 19.174-25.486 11.507-55.363 14.748-85.159 7.173-36.258-9.218-64.984-32.563-81.263-62.162-1.105 16.6.746 32.628 5.121 47.217-22.707-16.315-40.453-40.571-48.791-70.16-10.145-36.013-4.292-72.563 13.201-101.458-14.927 7.338-27.882 16.959-38.33 28.041 2.777-27.82 14.91-55.316 36.368-77.333 26.113-26.793 60.695-40.001 94.465-39.298-13.82-9.257-28.628-15.667-43.45-19.173 25.486-11.506 55.363-14.747 85.158-7.173 36.259 9.221 64.986 32.564 81.263 62.164 1.106-16.599-.746-32.629-5.118-47.217 22.705 16.317 40.45 40.572 48.787 70.159 10.146 36.012 4.293 72.563-13.199 101.458 14.928-7.339 27.882-16.959 38.328-28.041-2.777 27.82-14.909 55.315-36.367 77.332z" style="fill:#d99;fill-opacity:1;stroke:none;stroke-width:6.52874;stroke-dasharray:none;stroke-opacity:1" transform="scale(.5578) rotate(22.107 -129.644 701.889)" />
</svg>